<?xml version="1.0" standalone="no"?>
<!DOCTYPE svg PUBLIC "-//W3C//DTD SVG 20010904//EN"
 "http://www.w3.org/TR/2001/REC-SVG-20010904/DTD/svg10.dtd">
<svg version="1.0" xmlns="http://www.w3.org/2000/svg"
 width="242.000000pt" height="727.000000pt" viewBox="0 0 242.000000 727.000000"
 preserveAspectRatio="xMidYMid meet">
<metadata>
Created by potrace 1.16, written by Peter Selinger 2001-2019
</metadata>
<g transform="translate(0.000000,727.000000) scale(0.100000,-0.100000)"
fill="#000000" stroke="none">
<path d="M1101 7079 c-125 -38 -206 -162 -218 -331 -4 -47 -11 -82 -19 -89
-30 -24 -7 -163 32 -200 13 -12 29 -39 34 -60 6 -20 27 -61 47 -91 35 -50 37
-57 36 -124 -2 -85 -16 -142 -42 -176 -36 -46 -164 -91 -363 -128 -155 -30
-208 -151 -194 -440 7 -122 15 -164 31 -148 3 3 1 57 -5 119 -12 130 0 280 26
332 36 71 76 98 169 116 33 7 95 21 137 32 202 52 249 100 264 267 l7 83 21
-20 c11 -10 40 -29 63 -41 53 -27 99 -20 158 25 l42 33 7 -91 c4 -57 13 -104
24 -126 40 -76 141 -125 326 -157 143 -24 186 -62 213 -186 12 -57 14 -107 9
-230 -4 -95 -2 -158 3 -158 29 0 26 371 -3 452 -34 93 -93 126 -286 162 -109
20 -206 68 -234 116 -17 28 -22 57 -25 143 -3 98 -1 110 17 130 26 27 61 105
62 133 0 12 9 28 21 35 34 23 65 189 39 215 -5 5 -14 49 -19 97 -17 145 -78
244 -180 290 -52 23 -151 31 -200 16z m205 -47 c53 -27 108 -91 129 -151 26
-71 32 -264 10 -321 -9 -25 -18 -60 -20 -77 -11 -101 -40 -159 -115 -226 -98
-89 -157 -87 -256 5 -73 69 -97 109 -113 188 -6 30 -18 80 -26 110 -23 82 -18
189 14 308 19 69 70 133 131 165 50 26 62 28 130 25 50 -3 89 -12 116 -26z
m194 -386 c0 -15 -21 -107 -30 -130 -17 -45 -22 -24 -5 24 8 23 15 58 15 76 0
19 5 34 10 34 6 0 10 -2 10 -4z m-611 -79 c1 -16 6 -37 12 -48 6 -11 9 -25 6
-32 -7 -23 -27 31 -32 89 -4 41 -2 53 4 39 5 -11 10 -33 10 -48z M844 5850
c10 -7 69 -15 131 -19 71 -4 119 -12 129 -20 9 -8 19 -11 22 -9 3 3 -7 15 -22
27 -21 17 -41 21 -98 21 -39 0 -96 3 -126 6 -45 4 -51 3 -36 -6z M1371 5849
c-100 -8 -151 -25 -151 -49 0 -6 10 -4 23 4 13 9 68 19 134 24 61 6 119 15
130 21 22 12 20 12 -136 0z M630 5473 c0 -5 7 -28 16 -53 10 -28 13 -60 10
-85 -5 -28 -3 -36 4 -25 8 13 10 12 11 -5 1 -11 7 5 13 35 11 53 11 57 -17 98
-28 41 -37 50 -37 35z M1683 5443 c-10 -16 -22 -31 -27 -34 -5 -4 -4 -20 3
-39 6 -18 11 -44 11 -56 0 -14 6 -24 14 -24 12 0 13 11 9 53 -4 35 0 64 10 90
19 43 5 50 -20 10z M417 5123 c-4 -75 -7 -184 -7 -242 0 -74 -6 -127 -19 -176
-27 -97 -10 -123 19 -29 15 50 22 104 26 197 13 387 13 387 0 387 -10 0 -15
-36 -19 -137z M655 5218 c11 -58 8 -126 -15 -302 -22 -161 -25 -272 -10 -296
7 -11 10 4 10 50 1 70 43 427 52 435 3 3 11 -23 17 -57 7 -35 24 -106 39 -158
14 -52 28 -135 31 -184 4 -64 10 -91 20 -94 24 -8 7 148 -33 302 -20 76 -36
144 -36 152 0 10 9 8 34 -7 80 -47 196 -33 269 31 49 44 44 66 -5 25 -47 -40
-89 -55 -150 -55 -104 1 -183 65 -195 159 -4 27 -11 41 -21 41 -12 0 -13 -8
-7 -42z M1674 5233 c-17 -83 -53 -131 -116 -158 -74 -30 -163 -16 -231 37 -53
42 -61 24 -10 -22 70 -62 182 -77 263 -35 18 9 33 15 35 13 2 -2 -15 -73 -36
-158 -31 -121 -39 -170 -37 -224 4 -97 23 -95 24 2 0 54 11 123 38 232 21 85
42 164 45 174 8 21 50 -308 54 -413 1 -41 7 -66 15 -69 18 -6 16 85 -8 273
-23 182 -27 271 -15 333 9 48 -10 62 -21 15z M1899 5253 c-1 -5 0 -21 0 -38 1
-16 6 -133 11 -260 6 -174 12 -242 25 -280 34 -99 56 -88 25 12 -19 58 -23
106 -30 318 -5 138 -9 251 -10 253 -1 6 -20 1 -21 -5z M1850 4638 c-12 -22
-12 -22 6 -6 10 10 15 20 12 24 -4 3 -12 -5 -18 -18z M357 4563 c-23 -26 -36
-116 -47 -313 -5 -96 -12 -205 -15 -242 -5 -55 -3 -68 8 -68 11 0 16 30 21
148 9 204 24 367 40 435 7 31 12 57 11 57 -1 0 -9 -8 -18 -17z M774 4568 c-31
-50 -107 -220 -132 -298 -31 -93 -82 -292 -82 -318 0 -8 5 -12 12 -10 6 2 22
51 34 108 31 134 78 277 121 363 46 93 74 167 63 167 -5 0 -12 -5 -16 -12z
M1563 4572 c-9 -6 2 -37 38 -112 58 -121 108 -264 139 -402 12 -54 29 -103 37
-109 12 -11 13 -9 9 12 -4 13 -13 56 -20 94 -25 118 -74 265 -130 385 -30 63
-55 120 -57 127 -2 7 -9 9 -16 5z M1712 4571 c-11 -6 -8 -32 12 -132 32 -157
142 -499 160 -499 10 0 1 37 -31 133 -65 197 -94 301 -112 409 -12 75 -19 95
-29 89z M1970 4577 c0 -1 7 -34 15 -72 8 -39 19 -153 25 -255 14 -257 19 -310
34 -310 8 0 10 27 4 108 -4 59 -12 177 -17 263 -12 170 -27 255 -48 263 -7 3
-13 4 -13 3z M616 4548 c-3 -13 -12 -62 -21 -110 -9 -48 -39 -160 -67 -250
-71 -231 -71 -229 -60 -240 6 -6 14 2 20 24 131 417 174 598 144 598 -7 0 -14
-10 -16 -22z M1160 4466 c-10 -13 -10 -19 0 -31 7 -8 16 -15 20 -15 15 0 20
34 7 47 -12 12 -16 12 -27 -1z M425 3839 c-20 -92 -19 -158 5 -219 23 -58 25
-86 22 -250 -2 -106 -12 -154 -27 -138 -4 3 -10 44 -14 90 -7 78 -22 128 -39
128 -4 0 -17 -21 -29 -45 -17 -33 -23 -62 -23 -113 0 -60 4 -74 29 -110 16
-22 34 -43 40 -47 6 -3 11 -11 11 -16 0 -12 -44 18 -87 58 -23 22 -32 43 -41
97 -7 37 -19 78 -27 90 -12 18 -11 35 11 136 13 63 29 162 34 220 5 58 12 122
16 143 5 29 4 37 -9 37 -12 0 -16 -19 -22 -97 -7 -102 -22 -202 -51 -339 l-18
-81 28 -94 c31 -103 59 -142 134 -186 30 -18 46 -22 55 -15 6 6 23 12 37 14
20 2 25 9 26 33 0 17 -5 37 -11 45 -10 12 -10 55 -3 188 9 173 9 173 -17 253
-29 86 -29 129 -1 236 11 41 11 50 0 50 -8 0 -19 -26 -29 -68z m-36 -529 l1
-45 -20 25 c-22 29 -25 62 -8 93 l12 22 7 -25 c4 -14 7 -45 8 -70z m-13 -61
c19 -22 19 -22 -3 -10 -13 6 -23 16 -23 21 0 15 5 12 26 -11z m14 -49 c8 -5
11 -10 5 -10 -5 0 -17 5 -25 10 -8 5 -10 10 -5 10 6 0 17 -5 25 -10z m50 -55
c16 -9 19 -14 9 -15 -8 0 -24 7 -35 15 -24 18 -7 19 26 0z M544 3821 c-19
-233 13 -471 123 -901 36 -140 71 -284 78 -320 21 -104 26 -340 10 -455 -29
-212 -37 -351 -26 -458 6 -56 46 -271 88 -477 76 -374 76 -376 79 -550 3 -193
-11 -283 -60 -395 -32 -71 -33 -105 -3 -131 37 -33 78 -46 166 -50 95 -6 106
0 136 66 16 36 16 45 2 127 -10 58 -14 132 -12 218 2 94 -1 148 -13 195 -20
84 -19 359 3 595 26 283 29 415 11 560 -20 161 -20 246 -2 361 15 88 30 757
29 1237 0 194 0 197 21 197 21 0 21 -3 22 -247 1 -427 22 -1163 35 -1256 11
-72 11 -109 0 -210 -22 -198 -24 -358 -7 -537 24 -245 38 -517 31 -585 -4 -33
-13 -85 -20 -115 -9 -37 -13 -98 -10 -185 2 -86 -2 -161 -13 -222 -14 -87 -14
-95 3 -133 27 -61 41 -69 120 -68 115 0 205 42 205 94 0 12 -13 56 -30 97 -52
131 -59 182 -56 397 3 180 7 208 40 365 136 627 145 719 106 1045 -31 252 -25
431 20 605 147 568 177 719 186 935 6 157 -4 281 -25 288 -11 4 -12 -6 -6 -53
10 -85 7 -304 -5 -398 -21 -155 -60 -333 -131 -597 l-71 -265 -5 -181 c-4
-140 -1 -214 13 -325 11 -88 18 -205 17 -299 -1 -169 -5 -196 -113 -710 -49
-230 -52 -255 -55 -410 -3 -188 9 -269 54 -386 30 -77 42 -137 21 -104 -11 18
-21 10 -23 -19 -1 -19 -17 -31 -17 -13 0 5 -7 17 -15 28 -14 18 -15 16 -9 -18
7 -44 -11 -53 -26 -14 -5 13 -14 27 -20 31 -12 7 -9 -8 7 -52 3 -8 -3 -13 -16
-13 -14 0 -25 11 -35 35 -8 19 -20 35 -27 35 -7 0 -8 -7 -4 -17 14 -36 10 -48
-17 -51 -22 -3 -32 3 -48 30 -18 27 -20 42 -14 88 3 30 8 138 10 240 2 102 9
199 15 215 28 77 22 340 -18 765 -14 153 -15 192 -3 310 22 224 23 358 6 463
-13 74 -16 163 -15 428 1 184 -4 440 -11 569 -8 166 -8 264 -1 334 9 92 12
102 43 134 33 35 27 35 -24 0 -37 -26 -87 -23 -128 7 -44 32 -52 23 -14 -16
l29 -30 -1 -227 c-4 -824 -12 -1149 -29 -1248 -14 -87 -15 -117 -5 -210 29
-280 30 -311 10 -559 -27 -330 -35 -585 -20 -660 6 -33 15 -152 20 -265 4
-113 11 -224 15 -246 5 -31 3 -53 -11 -83 -16 -37 -22 -42 -49 -39 -30 3 -31
4 -18 51 10 32 -18 17 -33 -18 -8 -19 -21 -35 -30 -35 -13 0 -15 7 -10 38 6
34 5 36 -9 18 -8 -11 -15 -26 -15 -33 0 -7 -7 -13 -16 -13 -13 0 -15 7 -10 30
6 33 -9 42 -19 10 -9 -29 -28 -25 -23 5 6 29 -6 33 -21 8 -22 -37 -11 34 15
103 40 106 66 237 56 281 -5 21 -6 65 -2 98 12 103 -1 184 -102 660 l-62 290
0 195 c0 135 5 230 17 308 19 128 22 323 6 439 -6 43 -29 148 -51 233 -102
389 -138 563 -159 765 -10 100 -6 284 7 341 4 14 0 21 -10 21 -11 0 -16 -20
-22 -86z M1891 3878 c5 -18 14 -66 19 -106 9 -67 7 -80 -15 -145 -24 -68 -25
-80 -21 -232 3 -89 8 -169 12 -178 4 -11 0 -25 -11 -36 -23 -26 -17 -75 10
-79 11 -2 30 -8 42 -14 25 -12 36 -5 111 63 43 40 51 54 76 139 l28 95 -27
115 c-15 63 -31 165 -35 225 -12 138 -20 185 -33 185 -6 0 -7 -19 -3 -52 4
-29 11 -105 16 -168 5 -63 19 -152 30 -198 23 -97 24 -120 6 -145 -8 -10 -20
-48 -27 -84 -12 -59 -18 -69 -63 -109 -27 -24 -52 -41 -54 -39 -2 2 13 27 33
56 36 48 38 56 38 123 0 58 -4 79 -25 115 l-26 43 -16 -24 c-9 -14 -19 -56
-22 -94 -13 -171 -30 -147 -36 53 -6 151 -5 161 19 223 21 56 24 76 19 145 -6
95 -22 155 -41 155 -11 0 -12 -7 -4 -32z m93 -494 c11 -27 6 -70 -9 -90 -13
-17 -14 -14 -15 44 0 59 11 80 24 46z m0 -128 c-3 -8 -13 -17 -22 -21 -13 -5
-13 -2 3 15 21 24 26 25 19 6z m-4 -45 c0 -9 -61 -41 -77 -41 -4 0 10 11 32
24 49 29 45 28 45 17z m-50 -66 c-7 -8 -20 -15 -29 -15 -11 1 -8 5 9 15 32 18
35 18 20 0z M840 2359 c0 -48 20 -152 31 -163 12 -13 12 -7 -7 99 -17 99 -24
117 -24 64z M1284 2319 c3 -45 11 -90 21 -109 20 -39 29 -35 15 7 -6 16 -17
63 -25 104 l-14 74 3 -76z M1482 2307 c-7 -45 -15 -93 -18 -107 -5 -19 -4 -22
5 -14 12 11 41 131 41 171 0 12 -4 24 -9 27 -4 3 -13 -31 -19 -77z M1056 2363
c-3 -10 -9 -43 -15 -73 -5 -30 -14 -68 -21 -84 -18 -47 -2 -43 19 5 19 42 40
169 28 169 -3 0 -8 -8 -11 -17z"/>
</g>
</svg>
